<?xml version="1.0" standalone="no"?>
<!DOCTYPE svg PUBLIC "-//W3C//DTD SVG 20010904//EN"
 "http://www.w3.org/TR/2001/REC-SVG-20010904/DTD/svg10.dtd">
<svg version="1.0" xmlns="http://www.w3.org/2000/svg"
 width="1024.000000pt" height="165.000000pt" viewBox="0 0 1024.000000 165.000000"
 preserveAspectRatio="xMidYMid meet">

<g transform="translate(0.000000,165.000000) scale(0.100000,-0.100000)"
fill="#000000" stroke="none">
<path d="M2218 1548 c-20 -20 -28 -37 -28 -63 0 -42 13 -43 43 -3 12 16 17 37
15 59 l-3 34 -27 -27z"/>
<path d="M2115 1535 c-29 -28 -36 -95 -11 -95 24 0 56 50 56 86 0 40 -12 43
-45 9z"/>
<path d="M2307 1542 c-25 -28 -40 -73 -27 -86 17 -17 50 30 50 70 0 39 -1 40
-23 16z"/>
<path d="M2015 1515 c-41 -40 -31 -116 11 -87 19 12 34 49 34 81 0 37 -13 39
-45 6z"/>
<path d="M2372 1500 c-23 -37 -29 -70 -12 -70 18 0 42 48 38 77 l-3 28 -23
-35z"/>
<path d="M1907 1482 c-24 -26 -23 -82 1 -82 28 0 42 21 42 62 0 42 -16 50 -43
20z"/>
<path d="M2430 1448 c-11 -18 -20 -42 -20 -53 1 -18 3 -17 25 8 14 15 25 39
25 53 0 32 -6 30 -30 -8z"/>
<path d="M1794 1445 c-14 -21 -15 -31 -5 -51 19 -43 45 -27 49 29 4 55 -16 64
-44 22z"/>
<path d="M1686 1415 c-10 -26 -7 -42 10 -60 23 -22 46 -1 42 39 -2 23 -9 32
-24 34 -13 2 -24 -4 -28 -13z"/>
<path d="M2476 1380 c-28 -34 -34 -54 -14 -48 15 5 53 67 45 74 -2 3 -16 -9
-31 -26z"/>
<path d="M1587 1394 c-12 -13 -7 -51 8 -64 22 -18 37 0 33 36 -3 28 -26 43
-41 28z"/>
<path d="M1480 1356 c0 -31 28 -62 43 -47 15 15 -4 65 -26 69 -12 3 -17 -3
-17 -22z"/>
<path d="M1180 1357 c0 -16 40 -70 47 -63 6 5 -24 63 -37 71 -5 3 -10 0 -10
-8z"/>
<path d="M1380 1345 c0 -27 32 -65 38 -46 7 20 -7 58 -23 65 -11 4 -15 -1 -15
-19z"/>
<path d="M1280 1343 c1 -23 27 -59 37 -50 9 10 -9 59 -24 65 -8 2 -13 -4 -13
-15z"/>
<path d="M2130 1341 c-5 -11 -10 -34 -10 -51 0 -25 4 -31 18 -28 13 2 18 15
20 51 3 49 -9 62 -28 28z"/>
<path d="M2211 1341 c-14 -25 -14 -81 -1 -81 24 0 42 82 21 95 -6 3 -15 -3
-20 -14z"/>
<path d="M2047 1332 c-19 -21 -23 -77 -7 -87 21 -13 40 17 40 61 0 48 -8 54
-33 26z"/>
<path d="M2283 1331 c-15 -24 -17 -81 -3 -81 12 0 22 40 18 74 -3 26 -3 26
-15 7z"/>
<path d="M1960 1320 c-25 -25 -27 -78 -4 -87 23 -8 44 23 44 63 0 42 -14 50
-40 24z"/>
<path d="M2342 1302 c-7 -13 -12 -35 -10 -50 l4 -27 13 29 c6 16 10 39 9 50
-3 20 -4 20 -16 -2z"/>
<path d="M1862 1298 c-15 -15 -16 -60 -1 -75 22 -22 39 -2 39 43 0 45 -13 57
-38 32z"/>
<path d="M1760 1269 c-16 -28 2 -72 28 -67 24 5 25 81 0 86 -9 2 -22 -6 -28
-19z"/>
<path d="M1667 1264 c-13 -13 -7 -52 9 -69 22 -22 36 -6 32 36 -3 32 -24 49
-41 33z"/>
<path d="M2387 1257 c-4 -10 -7 -28 -6 -40 0 -21 1 -21 10 2 5 14 8 32 7 40
-3 13 -5 13 -11 -2z"/>
<path d="M1566 1234 c-7 -18 18 -64 35 -64 6 0 9 16 7 37 -3 41 -30 58 -42 27z"/>
<path d="M1180 1235 c0 -15 32 -65 41 -65 6 0 9 3 7 8 -22 45 -33 62 -40 62
-4 0 -8 -2 -8 -5z"/>
<path d="M1280 1219 c0 -14 9 -34 20 -44 19 -18 20 -17 20 2 0 12 -9 31 -20
44 l-19 24 -1 -26z"/>
<path d="M1470 1217 c0 -13 9 -32 20 -42 20 -18 20 -17 20 8 0 36 -10 57 -26
57 -8 0 -14 -10 -14 -23z"/>
<path d="M1370 1217 c0 -21 37 -64 46 -54 12 12 -10 61 -29 65 -10 2 -17 -3
-17 -11z"/>
<path d="M2010 1141 c-14 -27 -13 -43 6 -69 13 -18 19 -21 30 -11 24 20 11 99
-16 99 -5 0 -14 -9 -20 -19z"/>
<path d="M2091 1138 c-10 -27 6 -81 23 -75 15 5 14 89 -2 95 -6 2 -16 -7 -21
-20z"/>
<path d="M2165 1141 c-8 -27 5 -71 21 -71 9 0 14 11 14 29 0 55 -22 82 -35 42z"/>
<path d="M2235 1137 c-5 -18 -2 -39 6 -55 l14 -27 3 37 c2 21 -1 46 -7 55 -8
16 -10 14 -16 -10z"/>
<path d="M1932 1138 c-25 -25 -11 -88 20 -88 17 0 19 6 16 47 -3 48 -15 62
-36 41z"/>
<path d="M2296 1133 c-9 -27 3 -78 15 -66 6 6 6 26 1 49 -7 33 -9 36 -16 17z"/>
<path d="M1838 1115 c-9 -19 -7 -29 6 -50 10 -15 23 -24 29 -22 16 5 21 65 6
83 -17 20 -28 17 -41 -11z"/>
<path d="M1750 1115 c-18 -21 1 -69 28 -73 18 -3 22 2 22 23 0 29 -16 65 -29
65 -5 0 -14 -7 -21 -15z"/>
<path d="M2353 1095 c0 -22 2 -30 4 -17 2 12 2 30 0 40 -3 9 -5 -1 -4 -23z"/>
<path d="M1180 1107 c0 -16 40 -70 47 -63 6 5 -24 63 -37 71 -5 3 -10 0 -10
-8z"/>
<path d="M1653 1103 c-7 -18 15 -64 35 -71 8 -2 12 8 12 30 0 49 -33 78 -47
41z"/>
<path d="M1280 1092 c0 -23 26 -59 36 -50 8 9 -15 68 -27 68 -5 0 -9 -8 -9
-18z"/>
<path d="M1370 1091 c0 -24 42 -71 48 -53 5 15 -20 65 -35 70 -8 2 -13 -5 -13
-17z"/>
<path d="M1465 1101 c-7 -13 14 -59 31 -65 10 -4 14 3 14 22 0 39 -30 67 -45
43z"/>
<path d="M1560 1087 c0 -22 27 -57 43 -57 12 0 8 55 -5 68 -19 19 -38 14 -38
-11z"/>
<path d="M1180 990 c0 -18 30 -70 40 -70 6 0 1 18 -10 40 -20 40 -30 49 -30
30z"/>
<path d="M2095 970 c-7 -21 19 -80 35 -80 13 0 13 56 0 81 -14 24 -27 24 -35
-1z"/>
<path d="M2170 970 c0 -24 21 -70 32 -70 11 0 10 47 -2 71 -14 25 -30 25 -30
-1z"/>
<path d="M2240 966 c0 -13 9 -34 20 -47 l19 -24 1 22 c0 26 -20 73 -32 73 -4
0 -8 -11 -8 -24z"/>
<path d="M2305 963 c7 -31 35 -66 35 -45 0 16 -28 72 -36 72 -4 0 -3 -12 1
-27z"/>
<path d="M1280 967 c0 -23 18 -57 30 -57 16 0 11 26 -10 51 -17 21 -19 22 -20
6z"/>
<path d="M2017 973 c-21 -20 9 -93 39 -93 17 0 19 51 4 81 -11 19 -31 25 -43
12z"/>
<path d="M2360 967 c0 -8 9 -25 20 -38 l20 -24 -11 33 c-12 35 -29 52 -29 29z"/>
<path d="M1370 960 c0 -18 23 -59 36 -64 19 -7 18 24 -2 52 -16 23 -34 29 -34
12z"/>
<path d="M1852 958 c-16 -16 -15 -39 4 -66 23 -33 44 -28 44 11 0 40 -29 74
-48 55z"/>
<path d="M1937 963 c-21 -20 9 -93 39 -93 17 0 19 51 4 81 -11 19 -31 25 -43
12z"/>
<path d="M1470 942 c0 -21 27 -62 41 -62 14 0 11 33 -7 58 -18 27 -34 29 -34
4z"/>
<path d="M1563 944 c-6 -16 24 -65 45 -72 15 -5 16 32 2 57 -13 26 -39 34 -47
15z"/>
<path d="M1667 953 c-22 -21 9 -83 41 -83 19 0 14 44 -8 68 -23 24 -24 25 -33
15z"/>
<path d="M1753 944 c-8 -21 11 -60 37 -74 18 -10 20 -8 20 24 0 50 -42 88 -57
50z"/>
<path d="M1180 865 c0 -18 33 -78 37 -67 6 16 -16 72 -28 72 -5 0 -9 -2 -9 -5z"/>
<path d="M1280 835 c0 -20 22 -65 32 -65 12 0 10 18 -7 50 -17 33 -25 38 -25
15z"/>
<path d="M2423 837 c4 -10 7 -20 7 -23 0 -2 14 -11 31 -20 41 -21 35 0 -11 35
-27 21 -32 23 -27 8z"/>
<path d="M2280 831 c0 -21 28 -68 45 -74 27 -11 17 27 -15 58 -16 16 -30 23
-30 16z"/>
<path d="M2350 830 c0 -5 13 -24 30 -42 34 -38 40 -21 9 23 -20 29 -39 38 -39
19z"/>
<path d="M2210 810 c0 -11 13 -34 30 -52 l29 -33 1 26 c0 27 -34 79 -51 79 -5
0 -9 -9 -9 -20z"/>
<path d="M1380 801 c0 -23 36 -69 46 -58 9 9 -22 77 -36 77 -5 0 -10 -9 -10
-19z"/>
<path d="M2135 810 c-9 -15 22 -77 46 -90 21 -12 22 -11 16 25 -9 52 -46 92
-62 65z"/>
<path d="M2053 793 c-8 -21 27 -87 50 -91 13 -3 17 3 17 23 0 58 -51 110 -67
68z"/>
<path d="M1480 780 c0 -11 12 -33 27 -48 25 -24 28 -25 31 -8 4 19 -26 67 -46
74 -7 2 -12 -6 -12 -18z"/>
<path d="M1977 793 c-4 -3 -7 -19 -7 -35 0 -31 43 -83 60 -73 17 11 11 61 -11
89 -21 27 -31 31 -42 19z"/>
<path d="M1580 770 c0 -11 13 -34 30 -52 l29 -33 1 31 c0 29 -30 74 -50 74 -6
0 -10 -9 -10 -20z"/>
<path d="M1886 783 c-13 -13 -5 -60 14 -81 40 -43 63 -18 40 42 -9 26 -43 50
-54 39z"/>
<path d="M1687 773 c-4 -3 -7 -12 -7 -19 0 -15 48 -74 61 -74 19 0 9 57 -14
78 -25 24 -30 26 -40 15z"/>
<path d="M1787 773 c-20 -20 18 -93 49 -93 21 0 17 53 -6 78 -22 23 -32 27
-43 15z"/>
<path d="M90 440 c0 -27 30 -299 36 -327 4 -19 11 -23 43 -23 l39 0 7 85 c4
47 11 83 15 80 4 -2 11 -41 14 -85 l7 -80 40 0 c21 0 39 3 39 8 0 4 9 84 20
177 11 94 20 173 20 178 0 4 -11 7 -24 7 -26 0 -27 -8 -42 -187 -4 -46 -10
-83 -14 -83 -4 0 -10 37 -14 83 -15 186 -15 187 -47 187 -25 0 -29 -4 -29 -27
0 -40 -22 -254 -26 -250 -2 2 -8 48 -14 103 -18 172 -19 174 -46 174 -17 0
-24 -6 -24 -20z"/>
<path d="M480 438 c-18 -20 -20 -35 -20 -164 0 -125 2 -145 19 -165 28 -34
104 -34 132 0 17 20 19 40 19 167 0 131 -2 146 -20 164 -29 29 -102 28 -130
-2z m95 -162 c0 -114 -2 -130 -18 -140 -34 -21 -47 16 -47 135 0 128 4 141 39
137 l26 -3 0 -129z"/>
<path d="M730 275 l0 -185 30 0 30 0 0 76 0 75 28 -3 c26 -3 27 -5 32 -73 5
-68 6 -70 34 -73 l28 -4 -4 77 c-2 57 -8 80 -20 89 -16 12 -16 14 0 30 12 12
17 34 17 77 0 81 -20 99 -111 99 l-64 0 0 -185z m115 75 c0 -53 -1 -55 -27
-58 -28 -3 -28 -3 -28 58 0 61 0 61 28 58 26 -3 27 -5 27 -58z"/>
<path d="M1010 275 l0 -185 25 0 c24 0 25 3 25 53 0 30 6 62 14 73 14 18 15
18 26 -11 44 -119 41 -115 71 -115 l29 0 -21 52 c-12 29 -30 76 -41 104 l-20
51 41 82 41 81 -27 0 c-25 0 -32 -8 -62 -75 -18 -41 -37 -75 -42 -75 -5 0 -9
34 -9 75 0 73 -1 75 -25 75 l-25 0 0 -185z"/>
<path d="M1290 275 l0 -185 30 0 30 0 0 75 0 75 35 0 c31 0 35 3 35 25 0 22
-4 25 -35 25 l-35 0 0 60 0 60 45 0 c41 0 45 2 45 25 0 24 -2 25 -75 25 l-75
0 0 -185z"/>
<path d="M1559 441 c-23 -19 -24 -24 -24 -165 0 -138 1 -147 23 -168 30 -31
93 -31 124 0 20 20 23 34 26 132 5 128 -2 174 -29 201 -25 25 -89 25 -120 0z
m80 -35 c8 -9 11 -56 9 -142 l-3 -129 -25 0 -25 0 -3 134 c-2 101 1 136 10
143 18 11 24 10 37 -6z"/>
<path d="M1810 275 l0 -185 25 0 c24 0 25 2 25 75 0 72 1 75 23 75 37 0 47
-19 47 -87 0 -61 1 -63 25 -63 24 0 25 2 25 68 0 45 -5 75 -16 90 -14 20 -14
24 0 44 9 13 16 43 16 71 0 71 -29 97 -110 97 l-60 0 0 -185z m114 119 c10
-26 7 -79 -6 -92 -7 -7 -22 -12 -35 -12 -21 0 -23 4 -23 60 0 60 0 60 29 60
17 0 31 -6 35 -16z"/>
<path d="M2101 434 c-19 -24 -21 -40 -21 -155 0 -145 8 -174 55 -189 65 -22
115 19 115 95 0 31 -3 35 -25 35 -22 0 -25 -4 -25 -39 0 -31 -4 -41 -20 -46
-42 -13 -50 9 -50 136 0 94 3 121 16 133 8 9 19 16 23 16 16 0 31 -25 31 -52
0 -23 4 -28 25 -28 22 0 25 4 25 34 0 19 -9 45 -21 60 -16 21 -29 26 -64 26
-35 0 -48 -5 -64 -26z"/>
<path d="M2350 275 l0 -185 80 0 c73 0 80 2 80 19 0 17 -8 20 -52 23 l-53 3
-3 58 -3 57 46 0 c41 0 45 2 45 25 0 23 -4 25 -45 25 l-45 0 0 55 0 55 55 0
c52 0 55 1 55 25 0 25 -1 25 -80 25 l-80 0 0 -185z"/>
<path d="M2633 445 c-25 -17 -39 -71 -28 -105 4 -13 31 -49 61 -81 56 -61 67
-96 39 -119 -23 -19 -50 -8 -53 23 -3 21 -9 27 -28 27 -47 0 -22 -83 31 -100
78 -26 143 57 104 133 -6 12 -31 42 -55 67 -49 52 -61 86 -40 115 12 16 18 18
33 9 10 -6 19 -21 21 -33 3 -15 10 -21 29 -21 23 0 25 3 19 33 -11 60 -82 88
-133 52z"/>
<path d="M2854 443 c2 -10 18 -63 35 -119 21 -69 31 -122 31 -168 0 -63 1 -66
24 -66 23 0 24 4 30 78 4 42 8 113 11 157 l4 80 -15 -57 c-9 -32 -19 -58 -23
-58 -4 0 -12 21 -19 48 -7 26 -17 64 -23 85 -8 30 -14 37 -35 37 -19 0 -24 -4
-20 -17z"/>
</g>
</svg>
